<?xml version="1.0" encoding="UTF-8" ?>
<!DOCTYPE svg PUBLIC "-//W3C//DTD SVG 1.1//EN" "http://www.w3.org/Graphics/SVG/1.1/DTD/svg11.dtd">
<svg width="153pt" height="100pt" viewBox="0 0 153 100" version="1.1" xmlns="http://www.w3.org/2000/svg">
<path fill="#ffffff" d=" M 0.00 0.00 L 153.00 0.00 L 153.00 100.00 L 0.00 100.00 L 0.00 0.00 Z" />
<path fill="#1f407f" d=" M 81.05 11.14 C 95.37 6.78 111.92 10.79 122.42 21.53 C 131.01 30.00 135.33 42.25 134.54 54.24 C 138.25 58.61 140.57 64.25 140.30 70.05 C 140.49 78.57 135.28 86.86 127.64 90.57 C 120.28 94.50 111.68 92.52 103.73 93.00 C 102.91 90.65 102.08 88.31 101.29 85.95 C 102.24 84.30 103.19 82.65 104.14 81.00 C 108.81 80.94 113.48 81.11 118.15 80.97 C 124.08 80.75 129.07 74.89 128.23 68.98 C 128.34 64.63 125.10 61.19 121.50 59.26 C 123.11 52.63 122.97 45.45 120.16 39.16 C 115.69 28.55 104.52 21.13 92.96 21.42 C 82.07 21.24 71.77 27.91 66.75 37.46 C 57.36 35.04 47.29 40.58 43.85 49.53 C 35.11 47.01 25.08 53.04 23.69 62.11 C 21.81 70.71 28.28 79.91 37.04 80.91 C 42.59 81.17 48.15 80.91 53.70 81.00 C 54.70 82.63 55.70 84.25 56.72 85.86 C 55.93 88.24 55.15 90.62 54.36 93.00 C 44.78 92.53 34.33 94.77 25.66 89.50 C 13.79 83.17 8.31 67.74 13.14 55.25 C 16.79 45.20 26.53 37.93 37.17 37.07 C 42.91 29.95 51.48 25.41 60.64 24.89 C 66.02 18.55 72.99 13.43 81.05 11.14 Z" />
<path fill="#1a99d4" d=" M 63.03 47.09 C 64.98 45.90 67.08 43.94 69.53 44.51 C 71.33 45.78 72.70 47.54 74.22 49.11 C 77.43 48.64 80.68 48.66 83.89 49.10 C 85.35 47.54 86.66 45.81 88.39 44.55 C 91.23 43.90 93.48 46.39 95.85 47.53 C 96.01 48.11 96.34 49.25 96.51 49.83 C 95.90 51.64 95.31 53.45 94.72 55.26 C 96.78 57.87 98.40 60.79 99.63 63.88 C 101.65 64.31 103.71 64.61 105.66 65.31 C 107.79 67.24 107.02 70.51 106.87 73.04 C 105.77 75.92 102.08 75.46 99.64 76.18 C 98.51 79.32 96.60 82.06 94.93 84.91 C 95.29 87.22 96.22 89.38 97.00 91.57 C 94.26 93.38 91.47 96.14 87.90 95.52 C 86.60 93.94 85.22 92.43 83.81 90.95 C 80.62 91.59 77.37 91.56 74.18 90.98 C 72.86 92.41 71.56 93.84 70.26 95.29 C 69.70 95.43 68.58 95.72 68.03 95.87 C 65.60 94.64 63.24 93.26 61.08 91.59 C 61.80 89.45 62.66 87.34 63.04 85.11 C 61.66 82.06 59.49 79.37 58.35 76.17 C 56.04 75.49 52.93 75.90 51.43 73.66 C 50.62 71.62 50.89 69.29 51.13 67.16 C 52.06 64.11 55.92 64.70 58.39 63.86 C 59.60 60.75 61.28 57.86 63.36 55.25 C 62.85 52.65 60.10 49.14 63.03 47.09 Z" />
<path fill="#ffffff" d=" M 76.23 63.28 C 81.31 61.17 87.75 65.59 87.05 71.20 C 87.46 77.79 78.61 81.57 73.87 77.26 C 68.99 73.73 70.41 64.99 76.23 63.28 Z" />
</svg>
